<!-- src/assets/svg/zzo_heart.svg -->
<svg xmlns="http://www.w3.org/2000/svg" viewBox="0 0 64 96" shape-rendering="crispEdges">
  <!-- 가장 진한 레드 계열 -->
  <defs>
    <linearGradient id="heartGlow" x1="0" y1="0" x2="1" y2="1">
      <stop offset="0" stop-color="#ff5c7a"/>
      <stop offset="1" stop-color="#b10018"/>
    </linearGradient>
  </defs>

  <!-- 외곽 실루엣 (진한 빨강) -->
  <g fill="#8a0012">
    <rect x="20" y="8" width="8" height="4"/>
    <rect x="24" y="4" width="8" height="4"/>
    <rect x="28" y="0" width="8" height="4"/>
    <rect x="32" y="4" width="8" height="4"/>
    <rect x="36" y="8" width="8" height="4"/>

    <rect x="16" y="12" width="8" height="4"/>
    <rect x="40" y="12" width="8" height="4"/>

    <rect x="12" y="16" width="8" height="4"/>
    <rect x="44" y="16" width="8" height="4"/>

    <rect x="8" y="20" width="8" height="4"/>
    <rect x="48" y="20" width="8" height="4"/>

    <rect x="8" y="24" width="8" height="4"/>
    <rect x="48" y="24" width="8" height="4"/>

    <rect x="8" y="28" width="8" height="4"/>
    <rect x="48" y="28" width="8" height="4"/>

    <rect x="12" y="32" width="8" height="4"/>
    <rect x="44" y="32" width="8" height="4"/>

    <rect x="16" y="36" width="8" height="4"/>
    <rect x="40" y="36" width="8" height="4"/>

    <rect x="20" y="40" width="8" height="4"/>
    <rect x="36" y="40" width="8" height="4"/>

    <rect x="24" y="44" width="8" height="4"/>
    <rect x="32" y="44" width="8" height="4"/>

    <rect x="24" y="72" width="8" height="4"/>
    <rect x="32" y="72" width="8" height="4"/>

    <rect x="24" y="76" width="8" height="4"/>
    <rect x="32" y="76" width="8" height="4"/>

    <rect x="24" y="80" width="8" height="4"/>
    <rect x="32" y="80" width="8" height="4"/>

    <rect x="28" y="84" width="8" height="4"/>
    <rect x="28" y="88" width="8" height="4"/>
  </g>

  <!-- 중간 톤 레드 -->
  <g fill="#c4001c">
    <rect x="20" y="12" width="24" height="4"/>
    <rect x="16" y="16" width="32" height="4"/>
    <rect x="16" y="20" width="32" height="4"/>

    <rect x="12" y="24" width="36" height="4"/>
    <rect x="12" y="28" width="36" height="4"/>

    <rect x="16" y="32" width="28" height="4"/>
    <rect x="20" y="36" width="20" height="4"/>
    <rect x="24" y="40" width="12" height="4"/>
    <rect x="24" y="44" width="16" height="4"/>

    <rect x="20" y="48" width="20" height="4"/>
    <rect x="20" y="52" width="20" height="4"/>
    <rect x="20" y="56" width="20" height="4"/>

    <rect x="20" y="60" width="20" height="4"/>
    <rect x="20" y="64" width="20" height="4"/>
    <rect x="22" y="68" width="16" height="4"/>
  </g>

  <!-- 밝은 하이라이트 (하얀/연분홍) -->
  <g fill="#ffe9eb">
    <rect x="24" y="16" width="16" height="4"/>
    <rect x="20" y="20" width="12" height="4"/>
    <rect x="32" y="20" width="8" height="4"/>

    <rect x="20" y="24" width="8" height="4"/>
    <rect x="32" y="24" width="8" height="4"/>

    <rect x="20" y="28" width="8" height="4"/>
    <rect x="32" y="28" width="8" height="4"/>

    <rect x="24" y="32" width="12" height="4"/>
    <rect x="24" y="36" width="8" height="4"/>
  </g>

  <!-- 그림자 강조 -->
  <g fill="#5a000d">
    <rect x="40" y="24" width="8" height="4"/>
    <rect x="40" y="28" width="8" height="4"/>
    <rect x="36" y="32" width="8" height="4"/>
    <rect x="36" y="36" width="8" height="4"/>

    <rect x="32" y="48" width="8" height="4"/>
    <rect x="32" y="52" width="8" height="4"/>
    <rect x="32" y="56" width="8" height="4"/>

    <rect x="28" y="60" width="8" height="4"/>
    <rect x="28" y="64" width="8" height="4"/>
  </g>

  <!-- 전체 글로우 -->
  <circle cx="32" cy="40" r="30" fill="url(#heartGlow)" opacity="0.12"/>
</svg>

